<svg width="50" height="17" viewBox="0 0 50 17" fill="none" xmlns="http://www.w3.org/2000/svg">
<g filter="url(#filter0_d_101_6)">
<path d="M4.888 8.268V7.98C4.888 7.892 4.88 7.808 4.864 7.728C4.904 7.656 4.908 7.44 4.876 7.08C4.86 6.888 4.844 6.732 4.828 6.612C4.82 6.492 4.816 6.408 4.816 6.36V6.264C4.816 6.232 4.816 6.2 4.816 6.168C4.824 6.128 4.832 6.088 4.84 6.048C4.848 5.864 4.86 5.74 4.876 5.676C4.884 5.652 4.904 5.62 4.936 5.58C4.968 5.532 4.984 5.484 4.984 5.436C4.984 5.076 5 4.692 5.032 4.284C5.072 3.868 5.096 3.48 5.104 3.12C5.112 2.84 5.116 2.616 5.116 2.448C5.116 2.28 5.12 2.176 5.128 2.136C5.136 2.032 5.136 1.92 5.128 1.8C5.128 1.672 5.128 1.552 5.128 1.44C5.128 1.416 5.124 1.4 5.116 1.392L5.428 1.14H6.472C6.584 1.124 6.664 1.12 6.712 1.128C6.76 1.136 6.792 1.148 6.808 1.164L7.072 1.356C7.144 1.444 7.204 1.496 7.252 1.512C7.308 1.52 7.352 1.508 7.384 1.476C7.424 1.436 7.46 1.388 7.492 1.332C7.524 1.268 7.556 1.208 7.588 1.152L8.224 1.188L9.172 1.584C9.204 1.616 9.232 1.648 9.256 1.68C9.28 1.704 9.304 1.724 9.328 1.74C9.368 1.78 9.404 1.816 9.436 1.848C9.476 1.88 9.504 1.896 9.52 1.896C9.536 1.896 9.612 1.916 9.748 1.956C9.892 1.996 10.02 2.108 10.132 2.292C10.22 2.292 10.308 2.32 10.396 2.376C10.492 2.432 10.572 2.496 10.636 2.568C10.7 2.632 10.748 2.696 10.78 2.76C10.82 2.816 10.832 2.848 10.816 2.856C10.68 2.984 10.636 3.096 10.684 3.192C10.74 3.288 10.82 3.356 10.924 3.396C10.956 3.532 11.02 3.628 11.116 3.684C11.212 3.732 11.284 3.768 11.332 3.792C11.332 3.816 11.34 3.94 11.356 4.164C11.372 4.38 11.396 4.696 11.428 5.112C11.444 5.32 11.46 5.504 11.476 5.664C11.492 5.816 11.508 5.944 11.524 6.048C11.54 6.112 11.552 6.172 11.56 6.228C11.568 6.276 11.576 6.32 11.584 6.36C11.592 6.4 11.456 6.628 11.176 7.044C10.888 7.444 10.744 7.712 10.744 7.848H10.108C10.076 7.848 10.036 7.864 9.988 7.896C9.94 7.92 9.892 7.948 9.844 7.98L9.652 8.1C9.628 8.108 9.604 8.112 9.58 8.112C9.556 8.112 9.528 8.116 9.496 8.124C9.448 8.132 9.384 8.14 9.304 8.148C9.232 8.156 9.148 8.168 9.052 8.184C8.852 8.224 8.684 8.248 8.548 8.256C8.412 8.264 8.3 8.26 8.212 8.244C8.204 8.14 7.932 8.172 7.396 8.34C7.26 8.38 7.12 8.416 6.976 8.448C6.832 8.472 6.7 8.492 6.58 8.508C6.508 8.524 6.436 8.536 6.364 8.544C6.3 8.552 6.236 8.56 6.172 8.568L5.908 8.508C5.86 8.516 5.812 8.528 5.764 8.544C5.716 8.552 5.684 8.556 5.668 8.556C5.644 8.556 5.608 8.548 5.56 8.532C5.52 8.516 5.484 8.508 5.452 8.508C5.436 8.508 5.4 8.512 5.344 8.52C5.296 8.52 5.264 8.528 5.248 8.544L4.888 8.268ZM7.216 7.812C7.296 7.78 7.38 7.736 7.468 7.68C7.564 7.616 7.644 7.596 7.708 7.62H8.044C8.06 7.62 8.096 7.6 8.152 7.56C8.208 7.512 8.248 7.488 8.272 7.488C8.304 7.488 8.32 7.504 8.32 7.536C8.32 7.56 8.364 7.572 8.452 7.572C8.484 7.572 8.56 7.556 8.68 7.524C8.8 7.484 8.928 7.432 9.064 7.368C9.208 7.304 9.32 7.256 9.4 7.224C9.488 7.192 9.54 7.172 9.556 7.164C9.564 7.148 9.568 7.128 9.568 7.104C9.576 7.08 9.588 7.052 9.604 7.02C9.62 6.972 9.636 6.916 9.652 6.852C9.676 6.788 9.708 6.712 9.748 6.624C9.804 6.432 9.848 6.284 9.88 6.18C9.912 6.076 9.928 6.004 9.928 5.964L9.544 4.548C9.544 4.492 9.548 4.448 9.556 4.416C9.556 4.376 9.556 4.328 9.556 4.272C9.564 4.208 9.572 4.132 9.58 4.044C9.612 3.7 9.632 3.528 9.64 3.528C9.632 3.52 9.604 3.476 9.556 3.396C9.516 3.316 9.456 3.208 9.376 3.072C9.296 2.928 9.228 2.78 9.172 2.628C9.124 2.468 9.084 2.388 9.052 2.388L8.104 1.776H7.204C7.204 1.872 7.184 1.928 7.144 1.944C7.104 1.952 7.084 1.964 7.084 1.98V2.196C7.084 2.26 7.084 2.336 7.084 2.424C7.084 2.512 7.08 2.612 7.072 2.724V3.516C6.936 3.588 6.86 3.672 6.844 3.768C6.844 3.84 6.808 3.952 6.736 4.104C6.72 4.12 6.712 4.148 6.712 4.188C6.712 4.3 6.712 4.38 6.712 4.428C6.72 4.468 6.712 4.54 6.688 4.644C6.672 4.66 6.688 4.8 6.736 5.064C6.784 5.344 6.812 5.488 6.82 5.496C6.812 5.536 6.8 5.592 6.784 5.664C6.776 5.736 6.76 5.82 6.736 5.916C6.712 6.012 6.696 6.084 6.688 6.132C6.68 6.18 6.676 6.212 6.676 6.228C6.676 6.324 6.688 6.496 6.712 6.744C6.72 6.872 6.724 6.984 6.724 7.08C6.732 7.168 6.736 7.232 6.736 7.272C6.752 7.336 6.764 7.4 6.772 7.464C6.788 7.528 6.804 7.596 6.82 7.668L7.216 7.812ZM15.7859 5.232L15.6419 4.524L15.7499 4.416H16.3739C16.4299 4.416 16.4939 4.416 16.5659 4.416C16.6459 4.416 16.7379 4.42 16.8419 4.428L17.9339 4.344C18.0459 4.344 18.1499 4.34 18.2459 4.332C18.3419 4.324 18.4299 4.3 18.5099 4.26C18.5259 4.236 18.5499 4.216 18.5819 4.2C18.6139 4.176 18.6499 4.112 18.6899 4.008L18.7379 3.588C18.7939 3.604 18.7939 3.52 18.7379 3.336C18.7059 3.248 18.6859 3.18 18.6779 3.132C18.6779 3.076 18.7059 3.048 18.7619 3.048C18.7779 2.976 18.8019 2.88 18.8339 2.76C18.8659 2.632 18.8979 2.496 18.9299 2.352C18.9699 2.2 19.0059 2.048 19.0379 1.896C19.0699 1.736 19.0979 1.588 19.1219 1.452L19.8779 1.152C19.9659 1.144 20.0619 1.132 20.1659 1.116C20.2699 1.1 20.3779 1.084 20.4899 1.068C20.5939 1.052 20.6819 1.04 20.7539 1.032C20.8339 1.016 20.9059 1 20.9699 0.983999L21.2219 1.212V1.824C21.1099 1.928 21.0139 2.04 20.9339 2.16C20.8539 2.272 20.8059 2.392 20.7899 2.52L20.7539 2.76C20.7379 2.896 20.7139 3.04 20.6819 3.192C20.6579 3.344 20.6259 3.448 20.5859 3.504L20.5499 3.6L20.6099 3.804C20.6179 3.844 20.6299 3.856 20.6459 3.84C20.6539 3.832 20.6659 3.832 20.6819 3.84C20.6579 3.896 20.6299 3.96 20.5979 4.032C20.5659 4.104 20.5299 4.188 20.4899 4.284C20.4419 4.364 20.4179 4.428 20.4179 4.476C20.4179 4.516 20.4459 4.528 20.5019 4.512C20.5019 4.528 20.4939 4.648 20.4779 4.872C20.4699 5.096 20.4459 5.436 20.4059 5.892C20.3899 6.116 20.3739 6.284 20.3579 6.396C20.3499 6.5 20.3419 6.576 20.3339 6.624C20.3339 6.664 20.3299 6.688 20.3219 6.696C20.3219 6.704 20.3219 6.72 20.3219 6.744C20.2659 6.864 20.2219 6.976 20.1899 7.08C20.1659 7.184 20.1539 7.256 20.1539 7.296C20.1459 7.32 20.1499 7.348 20.1659 7.38C20.1899 7.412 20.2099 7.444 20.2259 7.476C20.2579 7.524 20.2859 7.56 20.3099 7.584L20.3579 7.98L20.0579 8.292L18.5099 8.556H18.4979L18.1859 8.28C18.1939 8.256 18.2019 8.22 18.2099 8.172C18.2179 8.124 18.2259 8.068 18.2339 8.004C18.2499 7.892 18.2579 7.816 18.2579 7.776C18.2659 7.736 18.2659 7.672 18.2579 7.584C18.2499 7.536 18.2619 7.408 18.2939 7.2C18.3259 6.984 18.3539 6.708 18.3779 6.372C18.4259 5.724 18.4179 5.4 18.3539 5.4C18.3139 5.4 18.3059 5.324 18.3299 5.172C18.2819 5.172 18.2259 5.176 18.1619 5.184C18.0979 5.184 18.0579 5.188 18.0419 5.196C17.8819 5.268 17.7299 5.32 17.5859 5.352C17.4499 5.376 17.3419 5.388 17.2619 5.388C17.2059 5.388 17.1059 5.368 16.9619 5.328C16.8179 5.28 16.6179 5.26 16.3619 5.268L15.9059 5.292L15.7859 5.232ZM14.7659 8.316L14.2739 8.328H13.7819L13.6739 8.34L13.0859 8.112C13.0939 8.032 13.1019 7.944 13.1099 7.848C13.1179 7.752 13.1259 7.64 13.1339 7.512C13.1499 7.272 13.1579 7.084 13.1579 6.948C13.1659 6.804 13.1699 6.708 13.1699 6.66V6.288C13.1699 6.144 13.1419 6.072 13.0859 6.072L13.1699 5.4C13.2659 5.144 13.3259 4.824 13.3499 4.44C13.3659 4.224 13.3899 3.992 13.4219 3.744C13.4619 3.488 13.5099 3.288 13.5659 3.144L13.6139 2.532C13.6699 2.54 13.6699 2.46 13.6139 2.292C13.5659 2.108 13.5939 2.016 13.6979 2.016C13.7139 1.92 13.7259 1.836 13.7339 1.764C13.7499 1.684 13.7579 1.612 13.7579 1.548C13.7499 1.452 13.7619 1.292 13.7939 1.068L13.9499 0.995999C14.0539 1.036 14.2019 1.068 14.3939 1.092C14.5939 1.116 14.7779 1.14 14.9459 1.164C15.0499 1.18 15.1419 1.192 15.2219 1.2C15.3019 1.2 15.3699 1.204 15.4259 1.212L15.5939 1.44L15.5579 1.872C15.5099 2.272 15.5099 2.472 15.5579 2.472C15.4539 2.656 15.3779 2.836 15.3299 3.012C15.2899 3.188 15.2499 3.348 15.2099 3.492C15.1779 3.612 15.1619 3.844 15.1619 4.188C15.1619 4.276 15.1739 4.34 15.1979 4.38C15.2219 4.412 15.2539 4.436 15.2939 4.452C15.3419 4.468 15.3859 4.472 15.4259 4.464C15.3779 4.512 15.3339 4.58 15.2939 4.668C15.2539 4.748 15.2139 4.848 15.1739 4.968C15.1339 5.08 15.0979 5.2 15.0659 5.328C15.0419 5.448 15.0219 5.568 15.0059 5.688C14.9899 5.8 14.9899 5.9 15.0059 5.988C15.0139 6.068 15.0299 6.172 15.0539 6.3C15.0779 6.428 15.1019 6.568 15.1259 6.72C15.1499 6.872 15.1699 7.032 15.1859 7.2C15.2019 7.368 15.2099 7.528 15.2099 7.68C15.1139 7.752 15.0899 7.872 15.1379 8.04L15.1499 8.064L14.7659 8.316ZM29.2346 8.352L28.8146 8.424C28.7186 8.44 28.6186 8.44 28.5146 8.424C28.4106 8.408 28.3026 8.4 28.1906 8.4C28.1666 8.4 28.1306 8.4 28.0826 8.4C28.0346 8.4 27.9786 8.4 27.9146 8.4C27.8586 8.4 27.8026 8.404 27.7466 8.412C27.6906 8.412 27.6426 8.412 27.6026 8.412L27.3386 8.232C27.3626 8.072 27.3546 7.956 27.3146 7.884C27.2826 7.812 27.2586 7.744 27.2426 7.68C27.2266 7.632 27.1946 7.556 27.1466 7.452C27.0986 7.348 27.0546 7.228 27.0146 7.092C27.0146 7.068 26.9746 6.996 26.8946 6.876C26.8146 6.756 26.7506 6.648 26.7026 6.552L26.5586 6.612C26.5186 6.612 26.4746 6.624 26.4266 6.648C26.3786 6.672 26.2586 6.684 26.0666 6.684C26.0426 6.636 26.0026 6.604 25.9466 6.588C25.8906 6.564 25.8266 6.56 25.7546 6.576C25.6906 6.584 25.6226 6.608 25.5506 6.648C25.4866 6.688 25.4306 6.736 25.3826 6.792L24.8906 6.864C24.8586 6.792 24.8226 6.736 24.7826 6.696C24.7506 6.648 24.7146 6.604 24.6746 6.564C24.6426 6.524 24.6146 6.48 24.5906 6.432C24.5666 6.384 24.5546 6.32 24.5546 6.24C24.7146 6.2 24.8066 6.148 24.8306 6.084C24.8626 6.02 24.8866 5.992 24.9026 6C24.9506 6.024 24.9946 6.036 25.0346 6.036C24.9786 6.036 24.9626 6.028 24.9866 6.012C25.0106 5.996 25.1186 5.956 25.3106 5.892L26.1866 5.784L26.3666 5.916C26.4946 5.948 26.5906 5.956 26.6546 5.94C26.7186 5.924 26.7626 5.896 26.7866 5.856C26.8106 5.808 26.8226 5.756 26.8226 5.7C26.8306 5.644 26.8386 5.596 26.8466 5.556C26.8626 5.468 26.8426 5.396 26.7866 5.34C26.7386 5.276 26.6706 5.22 26.5826 5.172C26.5666 5.084 26.5346 4.984 26.4866 4.872C26.4466 4.752 26.3946 4.612 26.3306 4.452C26.2746 4.3 26.2226 4.14 26.1746 3.972C26.1346 3.796 26.0986 3.636 26.0666 3.492C26.0346 3.348 26.0106 3.228 25.9946 3.132C25.9786 3.036 25.9666 2.98 25.9586 2.964C25.8466 2.892 25.7546 2.888 25.6826 2.952C25.6106 3.008 25.5506 3.092 25.5026 3.204C25.4626 3.316 25.4346 3.436 25.4186 3.564C25.4106 3.684 25.4106 3.768 25.4186 3.816C25.4106 3.832 25.3906 3.86 25.3586 3.9C25.3266 3.932 25.2906 3.968 25.2506 4.008C25.2106 4.048 25.1746 4.088 25.1426 4.128C25.1106 4.16 25.0906 4.184 25.0826 4.2C25.0506 4.256 25.0426 4.316 25.0586 4.38C25.0746 4.444 25.0626 4.5 25.0226 4.548C24.8626 4.836 24.6746 5.064 24.4586 5.232C24.4026 5.28 24.3586 5.348 24.3266 5.436C24.2946 5.524 24.2746 5.616 24.2666 5.712C24.2586 5.808 24.2666 5.904 24.2906 6C24.3146 6.088 24.3586 6.16 24.4226 6.216C24.3426 6.264 24.2786 6.316 24.2306 6.372C24.1906 6.42 24.1546 6.476 24.1226 6.54C24.0986 6.596 24.0746 6.66 24.0506 6.732C24.0266 6.796 23.9986 6.868 23.9666 6.948C23.8306 7.308 23.7626 7.496 23.7626 7.512L23.5946 7.86L23.4386 8.496C23.4466 8.616 23.4026 8.688 23.3066 8.712C23.2186 8.736 23.0746 8.748 22.8746 8.748C22.6826 8.796 22.5146 8.82 22.3706 8.82C22.2266 8.812 22.1786 8.736 22.2266 8.592C22.4346 8.096 22.5866 7.728 22.6826 7.488C22.7866 7.24 22.8386 7.052 22.8386 6.924C22.8386 6.884 22.8546 6.852 22.8866 6.828C22.9266 6.796 22.9586 6.772 22.9826 6.756C22.9906 6.74 23.0186 6.656 23.0666 6.504C23.1226 6.352 23.1826 6.184 23.2466 6C23.3106 5.808 23.3706 5.628 23.4266 5.46C23.4906 5.284 23.5386 5.164 23.5706 5.1C23.6426 4.948 23.7266 4.776 23.8226 4.584C23.9266 4.392 24.0466 4.208 24.1826 4.032C24.2546 3.936 24.3146 3.804 24.3626 3.636C24.4186 3.468 24.4706 3.284 24.5186 3.084C24.5666 2.884 24.6186 2.68 24.6746 2.472C24.7306 2.264 24.8026 2.072 24.8906 1.896C24.9386 1.88 25.0786 1.704 25.3106 1.368C25.3266 1.352 25.3386 1.336 25.3466 1.32C25.3626 1.296 25.3786 1.276 25.3946 1.26L26.9306 1.164C26.9626 1.204 26.9986 1.252 27.0386 1.308C27.0786 1.364 27.1226 1.424 27.1706 1.488C27.3226 1.68 27.4146 1.832 27.4466 1.944C27.4786 2.056 27.4986 2.132 27.5066 2.172C27.4906 2.196 27.5746 2.468 27.7586 2.988C27.8066 3.116 27.8466 3.26 27.8786 3.42C27.9106 3.58 27.9346 3.732 27.9506 3.876C27.9666 4.012 27.9746 4.132 27.9746 4.236C27.9746 4.332 27.9706 4.384 27.9626 4.392C27.9466 4.4 28.0746 4.5 28.3466 4.692C28.4106 4.74 28.4466 4.784 28.4546 4.824C28.4706 4.864 28.4706 4.9 28.4546 4.932C28.4466 4.964 28.4306 4.992 28.4066 5.016C28.3826 5.04 28.3706 5.056 28.3706 5.064L28.6946 5.496C28.6946 5.496 28.7866 5.844 28.9706 6.54C29.0746 6.876 29.1506 7.164 29.1986 7.404C29.2466 7.636 29.2706 7.816 29.2706 7.944C29.2706 7.96 29.2746 7.972 29.2826 7.98C29.2826 7.972 29.2906 7.992 29.3066 8.04L29.2346 8.352ZM32.301 8.46L32.157 8.508C32.045 8.548 31.913 8.576 31.761 8.592C31.617 8.6 31.525 8.604 31.485 8.604C31.461 8.604 31.405 8.6 31.317 8.592C31.237 8.576 31.177 8.568 31.137 8.568C31.113 8.568 31.081 8.588 31.041 8.628L30.501 8.436C30.501 8.396 30.501 8.36 30.501 8.328C30.509 8.296 30.517 8.26 30.525 8.22C30.541 8.108 30.553 8.004 30.561 7.908C30.577 7.804 30.577 7.708 30.561 7.62C30.625 7.556 30.633 7.36 30.585 7.032C30.537 6.696 30.513 6.484 30.513 6.396C30.513 6.372 30.521 6.308 30.537 6.204C30.553 6.1 30.569 6.008 30.585 5.928C30.593 5.904 30.609 5.872 30.633 5.832C30.665 5.792 30.681 5.748 30.681 5.7C30.665 5.468 30.673 5.28 30.705 5.136C30.745 4.984 30.757 4.832 30.741 4.68C30.733 4.64 30.737 4.6 30.753 4.56C30.769 4.52 30.777 4.468 30.777 4.404V4.008C30.777 3.896 30.777 3.772 30.777 3.636C30.777 3.492 30.781 3.328 30.789 3.144C30.797 2.784 30.801 2.544 30.801 2.424C30.809 2.304 30.821 2.22 30.837 2.172C30.845 2.092 30.865 2.028 30.897 1.98C30.937 1.932 30.957 1.852 30.957 1.74C30.957 1.732 30.941 1.708 30.909 1.668C30.885 1.628 30.853 1.576 30.813 1.512C30.789 1.48 30.773 1.44 30.765 1.392C30.757 1.344 30.753 1.3 30.753 1.26C30.761 1.212 30.765 1.172 30.765 1.14C30.773 1.108 30.777 1.016 30.777 0.864C30.993 0.799999 31.213 0.767999 31.437 0.767999C31.661 0.767999 31.841 0.76 31.977 0.744C32.025 0.736 32.061 0.728 32.085 0.719999C32.117 0.711999 32.145 0.707999 32.169 0.707999C32.193 0.7 32.221 0.696 32.253 0.696C32.293 0.688 32.349 0.684 32.421 0.684C32.453 0.764 32.497 0.852 32.553 0.948C32.609 1.044 32.653 1.132 32.685 1.212C32.789 1.356 32.889 1.424 32.985 1.416C33.081 1.408 33.169 1.372 33.249 1.308C33.337 1.244 33.409 1.176 33.465 1.104C33.521 1.024 33.557 0.983999 33.573 0.983999L34.929 0.995999L35.961 1.704C36.001 1.744 36.053 1.792 36.117 1.848C36.181 1.896 36.249 1.964 36.321 2.052C36.481 2.22 36.601 2.3 36.681 2.292L36.969 2.712C36.953 2.736 36.917 2.808 36.861 2.928C36.813 3.04 36.741 3.2 36.645 3.408C36.461 3.84 36.369 4.176 36.369 4.416L36.129 4.56C35.969 4.624 35.889 4.788 35.889 5.052C35.753 5.036 35.529 5.088 35.217 5.208C35.129 5.248 35.033 5.276 34.929 5.292C34.825 5.3 34.729 5.308 34.641 5.316C34.585 5.324 34.529 5.328 34.473 5.328C34.425 5.328 34.373 5.328 34.317 5.328L34.185 5.628C34.089 5.556 33.981 5.508 33.861 5.484C33.741 5.46 33.621 5.452 33.501 5.46C33.389 5.468 33.281 5.484 33.177 5.508C33.073 5.532 32.985 5.56 32.913 5.592C32.649 5.688 32.513 5.736 32.505 5.736H32.433C32.441 5.744 32.445 5.756 32.445 5.772C32.429 5.852 32.401 5.948 32.361 6.06C32.329 6.164 32.313 6.236 32.313 6.276C32.313 6.324 32.317 6.392 32.325 6.48C32.333 6.56 32.341 6.668 32.349 6.804C32.357 6.932 32.361 7.04 32.361 7.128C32.369 7.216 32.373 7.284 32.373 7.332L32.421 7.656C32.437 7.72 32.449 7.784 32.457 7.848C32.465 7.904 32.477 7.964 32.493 8.028L32.301 8.46ZM32.745 2.028C32.745 2.092 32.745 2.168 32.745 2.256C32.753 2.344 32.761 2.444 32.769 2.556C32.809 3.052 32.821 3.348 32.805 3.444C32.645 3.54 32.549 3.684 32.517 3.876C32.493 3.98 32.469 4.08 32.445 4.176C32.421 4.264 32.393 4.34 32.361 4.404L32.337 4.428C32.337 4.516 32.337 4.58 32.337 4.62C32.345 4.66 32.349 4.708 32.349 4.764L32.577 4.92L32.805 4.86C32.805 5.036 33.021 5.032 33.453 4.848C33.877 4.672 34.117 4.584 34.173 4.584H34.677C34.741 4.496 34.817 4.404 34.905 4.308C34.993 4.204 35.037 4.14 35.037 4.116L35.193 3.24L35.121 2.94L33.525 1.8H32.997L32.745 2.028ZM36.225 8.484C36.209 8.412 36.161 8.364 36.081 8.34C36.049 8.308 36.037 8.264 36.045 8.208C36.053 8.152 36.045 8.116 36.021 8.1C36.013 8.084 36.005 8.076 35.997 8.076C35.989 8.076 35.977 8.072 35.961 8.064C35.953 8.048 35.929 8.02 35.889 7.98C35.865 7.948 35.837 7.916 35.805 7.884C35.773 7.844 35.737 7.792 35.697 7.728C35.609 7.616 35.541 7.528 35.493 7.464C35.445 7.392 35.409 7.348 35.385 7.332C35.353 7.316 35.305 7.284 35.241 7.236C35.177 7.188 35.133 7.16 35.109 7.152C35.085 7.128 35.065 7.1 35.049 7.068C35.033 7.036 35.017 7.012 35.001 6.996C34.985 6.98 34.965 6.924 34.941 6.828C34.917 6.732 34.893 6.648 34.869 6.576C34.781 6.496 34.649 6.352 34.473 6.144C34.417 6.088 34.385 6.052 34.377 6.036L34.533 5.808L35.109 6.096C35.117 6.104 35.157 6.104 35.229 6.096C35.309 6.088 35.393 6.084 35.481 6.084C35.569 6.076 35.653 6.076 35.733 6.084C35.821 6.092 35.877 6.116 35.901 6.156C35.933 6.196 35.973 6.224 36.021 6.24C36.069 6.256 36.117 6.272 36.165 6.288C36.221 6.296 36.265 6.304 36.297 6.312C36.337 6.32 36.361 6.336 36.369 6.36L36.609 6.804C36.641 6.844 36.697 6.912 36.777 7.008C36.865 7.096 36.981 7.22 37.125 7.38C37.413 7.716 37.561 7.888 37.569 7.896L37.533 8.316L36.573 8.592L36.225 8.484ZM45.1135 8.352L44.6935 8.424C44.5975 8.44 44.4975 8.44 44.3935 8.424C44.2895 8.408 44.1815 8.4 44.0695 8.4C44.0455 8.4 44.0095 8.4 43.9615 8.4C43.9135 8.4 43.8575 8.4 43.7935 8.4C43.7375 8.4 43.6815 8.404 43.6255 8.412C43.5695 8.412 43.5215 8.412 43.4815 8.412L43.2175 8.232C43.2415 8.072 43.2335 7.956 43.1935 7.884C43.1615 7.812 43.1375 7.744 43.1215 7.68C43.1055 7.632 43.0735 7.556 43.0255 7.452C42.9775 7.348 42.9335 7.228 42.8935 7.092C42.8935 7.068 42.8535 6.996 42.7735 6.876C42.6935 6.756 42.6295 6.648 42.5815 6.552L42.4375 6.612C42.3975 6.612 42.3535 6.624 42.3055 6.648C42.2575 6.672 42.1375 6.684 41.9455 6.684C41.9215 6.636 41.8815 6.604 41.8255 6.588C41.7695 6.564 41.7055 6.56 41.6335 6.576C41.5695 6.584 41.5015 6.608 41.4295 6.648C41.3655 6.688 41.3095 6.736 41.2615 6.792L40.7695 6.864C40.7375 6.792 40.7015 6.736 40.6615 6.696C40.6295 6.648 40.5935 6.604 40.5535 6.564C40.5215 6.524 40.4935 6.48 40.4695 6.432C40.4455 6.384 40.4335 6.32 40.4335 6.24C40.5935 6.2 40.6855 6.148 40.7095 6.084C40.7415 6.02 40.7655 5.992 40.7815 6C40.8295 6.024 40.8735 6.036 40.9135 6.036C40.8575 6.036 40.8415 6.028 40.8655 6.012C40.8895 5.996 40.9975 5.956 41.1895 5.892L42.0655 5.784L42.2455 5.916C42.3735 5.948 42.4695 5.956 42.5335 5.94C42.5975 5.924 42.6415 5.896 42.6655 5.856C42.6895 5.808 42.7015 5.756 42.7015 5.7C42.7095 5.644 42.7175 5.596 42.7255 5.556C42.7415 5.468 42.7215 5.396 42.6655 5.34C42.6175 5.276 42.5495 5.22 42.4615 5.172C42.4455 5.084 42.4135 4.984 42.3655 4.872C42.3255 4.752 42.2735 4.612 42.2095 4.452C42.1535 4.3 42.1015 4.14 42.0535 3.972C42.0135 3.796 41.9775 3.636 41.9455 3.492C41.9135 3.348 41.8895 3.228 41.8735 3.132C41.8575 3.036 41.8455 2.98 41.8375 2.964C41.7255 2.892 41.6335 2.888 41.5615 2.952C41.4895 3.008 41.4295 3.092 41.3815 3.204C41.3415 3.316 41.3135 3.436 41.2975 3.564C41.2895 3.684 41.2895 3.768 41.2975 3.816C41.2895 3.832 41.2695 3.86 41.2375 3.9C41.2055 3.932 41.1695 3.968 41.1295 4.008C41.0895 4.048 41.0535 4.088 41.0215 4.128C40.9895 4.16 40.9695 4.184 40.9615 4.2C40.9295 4.256 40.9215 4.316 40.9375 4.38C40.9535 4.444 40.9415 4.5 40.9015 4.548C40.7415 4.836 40.5535 5.064 40.3375 5.232C40.2815 5.28 40.2375 5.348 40.2055 5.436C40.1735 5.524 40.1535 5.616 40.1455 5.712C40.1375 5.808 40.1455 5.904 40.1695 6C40.1935 6.088 40.2375 6.16 40.3015 6.216C40.2215 6.264 40.1575 6.316 40.1095 6.372C40.0695 6.42 40.0335 6.476 40.0015 6.54C39.9775 6.596 39.9535 6.66 39.9295 6.732C39.9055 6.796 39.8775 6.868 39.8455 6.948C39.7095 7.308 39.6415 7.496 39.6415 7.512L39.4735 7.86L39.3175 8.496C39.3255 8.616 39.2815 8.688 39.1855 8.712C39.0975 8.736 38.9535 8.748 38.7535 8.748C38.5615 8.796 38.3935 8.82 38.2495 8.82C38.1055 8.812 38.0575 8.736 38.1055 8.592C38.3135 8.096 38.4655 7.728 38.5615 7.488C38.6655 7.24 38.7175 7.052 38.7175 6.924C38.7175 6.884 38.7335 6.852 38.7655 6.828C38.8055 6.796 38.8375 6.772 38.8615 6.756C38.8695 6.74 38.8975 6.656 38.9455 6.504C39.0015 6.352 39.0615 6.184 39.1255 6C39.1895 5.808 39.2495 5.628 39.3055 5.46C39.3695 5.284 39.4175 5.164 39.4495 5.1C39.5215 4.948 39.6055 4.776 39.7015 4.584C39.8055 4.392 39.9255 4.208 40.0615 4.032C40.1335 3.936 40.1935 3.804 40.2415 3.636C40.2975 3.468 40.3495 3.284 40.3975 3.084C40.4455 2.884 40.4975 2.68 40.5535 2.472C40.6095 2.264 40.6815 2.072 40.7695 1.896C40.8175 1.88 40.9575 1.704 41.1895 1.368C41.2055 1.352 41.2175 1.336 41.2255 1.32C41.2415 1.296 41.2575 1.276 41.2735 1.26L42.8095 1.164C42.8415 1.204 42.8775 1.252 42.9175 1.308C42.9575 1.364 43.0015 1.424 43.0495 1.488C43.2015 1.68 43.2935 1.832 43.3255 1.944C43.3575 2.056 43.3775 2.132 43.3855 2.172C43.3695 2.196 43.4535 2.468 43.6375 2.988C43.6855 3.116 43.7255 3.26 43.7575 3.42C43.7895 3.58 43.8135 3.732 43.8295 3.876C43.8455 4.012 43.8535 4.132 43.8535 4.236C43.8535 4.332 43.8495 4.384 43.8415 4.392C43.8255 4.4 43.9535 4.5 44.2255 4.692C44.2895 4.74 44.3255 4.784 44.3335 4.824C44.3495 4.864 44.3495 4.9 44.3335 4.932C44.3255 4.964 44.3095 4.992 44.2855 5.016C44.2615 5.04 44.2495 5.056 44.2495 5.064L44.5735 5.496C44.5735 5.496 44.6655 5.844 44.8495 6.54C44.9535 6.876 45.0295 7.164 45.0775 7.404C45.1255 7.636 45.1495 7.816 45.1495 7.944C45.1495 7.96 45.1535 7.972 45.1615 7.98C45.1615 7.972 45.1695 7.992 45.1855 8.04L45.1135 8.352Z" fill="#323EAC" fill-opacity="0.81" shape-rendering="crispEdges"/>
</g>
<defs>
<filter id="filter0_d_101_6" x="0.815994" y="0.683998" width="48.3695" height="16.136" filterUnits="userSpaceOnUse" color-interpolation-filters="sRGB">
<feFlood flood-opacity="0" result="BackgroundImageFix"/>
<feColorMatrix in="SourceAlpha" type="matrix" values="0 0 0 0 0 0 0 0 0 0 0 0 0 0 0 0 0 0 127 0" result="hardAlpha"/>
<feOffset dy="4"/>
<feGaussianBlur stdDeviation="2"/>
<feComposite in2="hardAlpha" operator="out"/>
<feColorMatrix type="matrix" values="0 0 0 0 0 0 0 0 0 0 0 0 0 0 0 0 0 0 0.25 0"/>
<feBlend mode="normal" in2="BackgroundImageFix" result="effect1_dropShadow_101_6"/>
<feBlend mode="normal" in="SourceGraphic" in2="effect1_dropShadow_101_6" result="shape"/>
</filter>
</defs>
</svg>
