<svg width="33" height="8" viewBox="0 0 33 8" fill="none" xmlns="http://www.w3.org/2000/svg">
<path d="M2.35156 5.84424L2.42334 5.35889C2.42334 5.02393 2.06559 4.85645 1.3501 4.85645C1.22705 4.85645 1.1416 4.88493 1.09375 4.94189C1.0459 4.99886 1.02197 5.0957 1.02197 5.23242C1.02197 5.36914 1.04248 5.55827 1.0835 5.7998C1.12451 6.04362 1.14502 6.22933 1.14502 6.35693C1.14502 6.48682 1.09375 6.55176 0.991211 6.55176C0.888672 6.55176 0.837402 6.4834 0.837402 6.34668C0.837402 6.21224 0.853353 6.0083 0.885254 5.73486C0.917155 5.46143 0.933105 5.27572 0.933105 5.17773C0.933105 4.94531 0.890951 4.8291 0.806641 4.8291C0.751953 4.8291 0.724609 4.89404 0.724609 5.02393L0.806641 5.59131C0.806641 5.72575 0.75765 5.79297 0.659668 5.79297C0.563965 5.79297 0.516113 5.72461 0.516113 5.58789L0.594727 4.95898L0.591309 4.3916V0.724121C0.591309 0.582845 0.546875 0.468913 0.458008 0.382324L0.526367 0.310547C0.619792 0.401693 0.733724 0.447266 0.868164 0.447266H3.69141C5.05404 0.447266 5.89941 0.890462 6.22754 1.77686C6.31868 2.02751 6.36426 2.29525 6.36426 2.58008C6.36426 2.86263 6.34603 3.10645 6.30957 3.31152C6.27539 3.51432 6.23096 3.6932 6.17627 3.84814C6.12158 4.00081 6.04411 4.13639 5.94385 4.25488C5.84587 4.37337 5.74674 4.47363 5.64648 4.55566C5.5485 4.63542 5.42318 4.70378 5.27051 4.76074C5.11784 4.81771 4.97656 4.86214 4.84668 4.89404C4.7168 4.92367 4.55387 4.94645 4.35791 4.9624C4.05029 4.98747 3.68913 5 3.27441 5H2.77881C2.5874 5 2.4917 5.13672 2.4917 5.41016L2.54639 5.84766C2.54639 5.93424 2.51676 5.97754 2.45752 5.97754C2.38688 5.97754 2.35156 5.93311 2.35156 5.84424ZM4.31006 3.49268C4.3807 3.40153 4.43538 3.28418 4.47412 3.14062C4.51286 2.99479 4.53223 2.82048 4.53223 2.61768C4.53223 2.4126 4.49805 2.2417 4.42969 2.10498C4.36133 1.96826 4.27018 1.868 4.15625 1.8042C4.04232 1.7404 3.91585 1.69368 3.77686 1.66406C3.63786 1.63216 3.49202 1.61507 3.33936 1.61279C3.18669 1.60824 3.04427 1.60482 2.91211 1.60254C2.58854 1.59798 2.38118 1.55013 2.29004 1.45898L2.22168 1.52734C2.30827 1.61165 2.35156 1.72559 2.35156 1.86914V2.65527C2.35156 3.17936 2.35384 3.57129 2.3584 3.83105H3.13428C3.52393 3.83105 3.79964 3.79688 3.96143 3.72852C4.12549 3.66016 4.2417 3.58154 4.31006 3.49268ZM2.57031 7.0542C2.57031 7.15902 2.53158 7.21143 2.4541 7.21143C2.37891 7.21143 2.34131 7.16813 2.34131 7.08154C2.34131 6.99723 2.34587 6.92318 2.35498 6.85938C2.36637 6.79557 2.3846 6.71354 2.40967 6.61328C2.43473 6.5153 2.44954 6.45378 2.4541 6.42871C2.46094 6.45833 2.47347 6.50732 2.4917 6.57568C2.50993 6.64632 2.5236 6.70101 2.53271 6.73975C2.55778 6.84684 2.57031 6.95166 2.57031 7.0542ZM11.0229 1.6709L11.0776 0.891602C11.0776 0.65918 11.0241 0.489421 10.917 0.382324L10.9854 0.310547C11.0788 0.401693 11.1927 0.447266 11.3271 0.447266H12.5337C12.6704 0.447266 12.7843 0.401693 12.8755 0.310547L12.9438 0.382324C12.855 0.471191 12.8105 0.585124 12.8105 0.724121V4.72314C12.8105 4.85986 12.855 4.9738 12.9438 5.06494L12.8755 5.1333C12.7866 5.04443 12.6727 5 12.5337 5H11.3271C11.1882 5 11.0742 5.04443 10.9854 5.1333L10.917 5.06494C11.0036 4.97835 11.0469 4.86442 11.0469 4.72314L11.04 3.57471C11.04 3.43799 11.0833 3.3252 11.1699 3.23633L11.1016 3.16797C11.015 3.25456 10.901 3.29785 10.7598 3.29785H9.3584C9.2194 3.29785 9.10547 3.25456 9.0166 3.16797L8.94824 3.23633C8.9528 3.28874 8.95508 3.56445 8.95508 4.06348V5.60498C8.95508 5.81234 8.98128 6.10628 9.03369 6.48682C9.0861 6.86735 9.1123 7.13623 9.1123 7.29346C9.1123 7.45068 9.09294 7.55778 9.0542 7.61475C9.01774 7.67171 8.97331 7.7002 8.9209 7.7002C8.86849 7.7002 8.82292 7.67171 8.78418 7.61475C8.74772 7.56006 8.72949 7.50309 8.72949 7.44385C8.72949 7.38688 8.74089 7.25358 8.76367 7.04395C8.83203 6.41048 8.86621 5.93424 8.86621 5.61523C8.86621 5.45801 8.81836 5.32129 8.72266 5.20508C8.53581 4.97949 8.27946 4.8667 7.95361 4.8667C7.78727 4.8667 7.64714 4.90544 7.5332 4.98291C7.42155 5.06038 7.36572 5.16748 7.36572 5.3042C7.36572 5.4432 7.38737 5.646 7.43066 5.9126C7.47624 6.1792 7.49902 6.36377 7.49902 6.46631C7.49902 6.67822 7.43294 6.78418 7.30078 6.78418C7.23926 6.78418 7.18685 6.76025 7.14355 6.7124C7.10026 6.66683 7.07861 6.59049 7.07861 6.4834C7.07861 6.37858 7.11507 6.18945 7.18799 5.91602C7.26318 5.64258 7.30078 5.42952 7.30078 5.27686V0.724121C7.30078 0.580566 7.25749 0.466634 7.1709 0.382324L7.23584 0.310547C7.32926 0.401693 7.4432 0.447266 7.57764 0.447266H8.80469C8.93913 0.447266 9.05192 0.401693 9.14307 0.310547L9.21484 0.382324C9.11003 0.487142 9.05762 0.65804 9.05762 0.89502L9.10889 1.68115C9.10889 1.91585 9.05534 2.08675 8.94824 2.19385L9.0166 2.26562C9.10547 2.17676 9.2194 2.13232 9.3584 2.13232H10.7734C10.9124 2.13232 11.0252 2.17676 11.1118 2.26562L11.1836 2.19385C11.0765 2.08447 11.0229 1.91016 11.0229 1.6709ZM13.7026 5.21875L13.7129 5.76221C13.7129 5.87158 13.6958 5.95361 13.6616 6.0083C13.6274 6.06527 13.5864 6.09375 13.5386 6.09375C13.4429 6.09375 13.395 6.00146 13.395 5.81689C13.395 5.63232 13.4178 5.42725 13.4634 5.20166C13.509 4.97835 13.5488 4.82454 13.583 4.74023L15.2236 0.703613C15.2464 0.644368 15.2578 0.586263 15.2578 0.529297C15.2578 0.472331 15.2384 0.416504 15.1997 0.361816L15.2954 0.300293C15.3615 0.398275 15.464 0.447266 15.603 0.447266H17.1753C17.312 0.447266 17.4134 0.398275 17.4795 0.300293L17.5786 0.361816C17.5399 0.416504 17.5205 0.468913 17.5205 0.519043C17.5205 0.569173 17.5342 0.629557 17.5615 0.700195L19.25 4.74365C19.3024 4.87126 19.3833 4.97152 19.4927 5.04443L19.4517 5.10938C19.34 5.03646 19.2158 5 19.0791 5H18.4092C18.4137 5.05013 18.416 5.08545 18.416 5.10596C18.416 5.18115 18.3853 5.21875 18.3237 5.21875C18.2964 5.21875 18.2713 5.20736 18.2485 5.18457C18.228 5.16406 18.2178 5.1333 18.2178 5.09229C18.2178 5.05355 18.2201 5.02279 18.2246 5H17.811C17.7108 5 17.6458 5.05469 17.6162 5.16406C17.5798 5.2985 17.5615 5.45231 17.5615 5.62549C17.5615 5.80094 17.5729 5.96045 17.5957 6.104C17.6185 6.24756 17.6299 6.34554 17.6299 6.39795C17.6299 6.45264 17.6162 6.49593 17.5889 6.52783C17.5638 6.56201 17.5319 6.5791 17.4932 6.5791C17.4544 6.5791 17.4214 6.56315 17.394 6.53125C17.3667 6.49935 17.353 6.45492 17.353 6.39795C17.353 6.34098 17.3667 6.23047 17.394 6.06641C17.4237 5.90234 17.4385 5.7793 17.4385 5.69727V4.73682C17.4157 4.67529 17.4043 4.61833 17.4043 4.56592C17.4043 4.51351 17.4248 4.45768 17.4658 4.39844L17.377 4.3335C17.3086 4.43148 17.2061 4.48047 17.0693 4.48047H15.6646C15.5278 4.48047 15.4253 4.43262 15.3569 4.33691L15.2681 4.39844C15.3114 4.45996 15.333 4.51693 15.333 4.56934C15.333 4.62174 15.325 4.67757 15.3091 4.73682V4.74023C15.2886 4.81771 15.2783 4.87695 15.2783 4.91797C15.2783 4.95898 15.3011 5.01253 15.3467 5.07861L15.2578 5.14355C15.1895 5.04785 15.0869 5 14.9502 5H13.7129C13.7061 5.04329 13.7026 5.11621 13.7026 5.21875ZM16.0166 3.53369H16.6694C16.8062 3.53369 16.9292 3.57015 17.0386 3.64307L17.083 3.57812C16.9759 3.50521 16.8984 3.40381 16.8506 3.27393L16.4165 2.16309C16.3664 2.0332 16.3402 1.90104 16.3379 1.7666H16.2935C16.2889 1.91699 16.2661 2.04915 16.2251 2.16309L15.832 3.27051C15.7842 3.40267 15.7078 3.50521 15.603 3.57812L15.6475 3.64648C15.7546 3.57129 15.8776 3.53369 16.0166 3.53369ZM18.2349 6.13135C18.2349 5.97412 18.2645 5.77702 18.3237 5.54004C18.3898 5.81348 18.4229 5.99121 18.4229 6.07324C18.4229 6.19401 18.391 6.25439 18.3271 6.25439C18.2656 6.25439 18.2349 6.21338 18.2349 6.13135ZM25.5117 6.12109L25.5869 5.41357C25.5869 5.12646 25.4696 4.90771 25.2349 4.75732C25.0024 4.60465 24.7575 4.53743 24.5 4.55566C24.2425 4.57161 24.0625 4.6582 23.96 4.81543C23.9076 4.89062 23.8813 4.97949 23.8813 5.08203L23.8643 5.99805C23.8643 6.12337 23.8836 6.30908 23.9224 6.55518C23.9611 6.80355 23.9805 6.9904 23.9805 7.11572C23.9805 7.33675 23.9178 7.44727 23.7925 7.44727C23.6672 7.44727 23.6045 7.34017 23.6045 7.12598C23.6045 6.9847 23.625 6.7819 23.666 6.51758C23.707 6.25326 23.7298 6.05273 23.7344 5.91602C23.7412 5.7793 23.7446 5.48763 23.7446 5.04102C23.7446 4.92253 23.7082 4.78581 23.6353 4.63086C23.5623 4.47591 23.4473 4.26286 23.29 3.9917C23.1328 3.72054 23.0041 3.48128 22.9038 3.27393L22.8013 3.21582C22.7466 3.31608 22.6497 3.36621 22.5107 3.36621L22.2236 3.37646C22.0277 3.37646 21.8807 3.32861 21.7827 3.23291L21.7109 3.30127C21.7178 3.38558 21.7212 3.56559 21.7212 3.84131L21.7178 4.67871C21.7178 4.92936 21.7223 5.11393 21.7314 5.23242L21.7964 5.73486C21.7964 5.82829 21.7645 5.875 21.7007 5.875C21.6369 5.875 21.605 5.83171 21.605 5.74512L21.6597 5.32129C21.6597 5.21875 21.6289 5.13672 21.5674 5.0752C21.5081 5.01595 21.4295 4.98633 21.3315 4.98633C21.2358 4.98633 21.1504 5.02848 21.0752 5.11279C21.0023 5.19938 20.9658 5.31104 20.9658 5.44775C20.9658 5.58447 20.9909 5.76904 21.041 6.00146C21.0911 6.23617 21.1162 6.40479 21.1162 6.50732C21.1162 6.72152 21.0399 6.82861 20.8872 6.82861C20.7345 6.82861 20.6582 6.7238 20.6582 6.51416C20.6582 6.41618 20.6799 6.24528 20.7231 6.00146C20.7687 5.75765 20.7915 5.56396 20.7915 5.42041C20.7915 5.27686 20.7585 5.15837 20.6924 5.06494C20.6263 4.9738 20.5511 4.92822 20.4668 4.92822C20.3825 4.92822 20.3107 4.95671 20.2515 5.01367C20.1922 5.07292 20.1626 5.14583 20.1626 5.23242L20.2549 6.04248C20.2549 6.18148 20.2036 6.25098 20.1011 6.25098C19.9985 6.25098 19.9473 6.18034 19.9473 6.03906C19.9473 5.95703 19.9689 5.81348 20.0122 5.6084C20.0555 5.4056 20.076 5.24723 20.0737 5.1333C20.0715 5.01937 20.0703 3.54508 20.0703 0.710449C20.0703 0.569173 20.027 0.45638 19.9404 0.37207L20.0088 0.303711C20.0977 0.390299 20.2104 0.433594 20.3472 0.433594H23.4097C23.8882 0.433594 24.2095 0.448405 24.3735 0.478027C24.5399 0.505371 24.6846 0.534993 24.8076 0.566895C24.9329 0.598796 25.0378 0.638672 25.1221 0.686523C25.2087 0.732096 25.2952 0.790202 25.3818 0.86084C25.4707 0.929199 25.5413 1.00781 25.5938 1.09668C25.7145 1.29948 25.7749 1.51481 25.7749 1.74268C25.7749 1.97054 25.7567 2.15739 25.7202 2.30322C25.686 2.44678 25.6279 2.58236 25.5459 2.70996C25.3682 2.98568 25.056 3.12354 24.6094 3.12354L24.582 3.20215C24.7256 3.25911 24.8213 3.33773 24.8691 3.43799C25.0697 3.87549 25.2178 4.15348 25.3135 4.27197C25.4092 4.38818 25.498 4.48161 25.5801 4.55225C25.6621 4.62288 25.7795 4.69466 25.9321 4.76758C26.0848 4.84049 26.1771 4.88835 26.209 4.91113C26.2409 4.93164 26.2568 4.94873 26.2568 4.9624C26.2568 5.19027 26.2876 5.48307 26.3491 5.84082C26.4106 6.19857 26.4414 6.42871 26.4414 6.53125C26.4414 6.63379 26.4368 6.70785 26.4277 6.75342C26.4209 6.79899 26.4038 6.84342 26.3765 6.88672C26.3491 6.93229 26.3092 6.95508 26.2568 6.95508C26.2044 6.95508 26.1646 6.91748 26.1372 6.84229C26.1121 6.76709 26.0996 6.6748 26.0996 6.56543C26.0996 6.45605 26.1144 6.26009 26.144 5.97754C26.1737 5.69727 26.1885 5.48535 26.1885 5.3418C26.1885 5.05697 26.0962 4.91455 25.9116 4.91455C25.8205 4.91455 25.7521 4.9305 25.7065 4.9624C25.6632 4.9943 25.6416 5.05924 25.6416 5.15723C25.6416 5.25749 25.6621 5.41585 25.7031 5.63232C25.7441 5.8488 25.7646 6.01172 25.7646 6.12109C25.7646 6.23275 25.7225 6.28857 25.6382 6.28857C25.5539 6.28857 25.5117 6.23275 25.5117 6.12109ZM23.2354 1.56836L22.4287 1.59229C22.0983 1.59229 21.883 1.54329 21.7827 1.44531L21.7109 1.51025C21.8021 1.59912 21.8477 1.71305 21.8477 1.85205V2.08105C21.8477 2.21777 21.8021 2.33171 21.7109 2.42285L21.7827 2.49121C21.8807 2.39095 22.0835 2.34082 22.3911 2.34082L23.2559 2.37158C23.486 2.37158 23.6637 2.34196 23.7891 2.28271C23.9167 2.22119 23.9805 2.10954 23.9805 1.94775C23.9805 1.84521 23.9451 1.76546 23.8745 1.7085C23.8039 1.64925 23.7184 1.61165 23.6182 1.5957C23.5179 1.57747 23.3903 1.56836 23.2354 1.56836ZM26.8071 5.21875L26.8174 5.76221C26.8174 5.87158 26.8003 5.95361 26.7661 6.0083C26.7319 6.06527 26.6909 6.09375 26.6431 6.09375C26.5474 6.09375 26.4995 6.00146 26.4995 5.81689C26.4995 5.63232 26.5223 5.42725 26.5679 5.20166C26.6134 4.97835 26.6533 4.82454 26.6875 4.74023L28.3281 0.703613C28.3509 0.644368 28.3623 0.586263 28.3623 0.529297C28.3623 0.472331 28.3429 0.416504 28.3042 0.361816L28.3999 0.300293C28.466 0.398275 28.5685 0.447266 28.7075 0.447266H30.2798C30.4165 0.447266 30.5179 0.398275 30.584 0.300293L30.6831 0.361816C30.6444 0.416504 30.625 0.468913 30.625 0.519043C30.625 0.569173 30.6387 0.629557 30.666 0.700195L32.3545 4.74365C32.4069 4.87126 32.4878 4.97152 32.5972 5.04443L32.5562 5.10938C32.4445 5.03646 32.3203 5 32.1836 5H31.5137C31.5182 5.05013 31.5205 5.08545 31.5205 5.10596C31.5205 5.18115 31.4897 5.21875 31.4282 5.21875C31.4009 5.21875 31.3758 5.20736 31.353 5.18457C31.3325 5.16406 31.3223 5.1333 31.3223 5.09229C31.3223 5.05355 31.3245 5.02279 31.3291 5H30.9155C30.8153 5 30.7503 5.05469 30.7207 5.16406C30.6842 5.2985 30.666 5.45231 30.666 5.62549C30.666 5.80094 30.6774 5.96045 30.7002 6.104C30.723 6.24756 30.7344 6.34554 30.7344 6.39795C30.7344 6.45264 30.7207 6.49593 30.6934 6.52783C30.6683 6.56201 30.6364 6.5791 30.5977 6.5791C30.5589 6.5791 30.5259 6.56315 30.4985 6.53125C30.4712 6.49935 30.4575 6.45492 30.4575 6.39795C30.4575 6.34098 30.4712 6.23047 30.4985 6.06641C30.5282 5.90234 30.543 5.7793 30.543 5.69727V4.73682C30.5202 4.67529 30.5088 4.61833 30.5088 4.56592C30.5088 4.51351 30.5293 4.45768 30.5703 4.39844L30.4814 4.3335C30.4131 4.43148 30.3105 4.48047 30.1738 4.48047H28.769C28.6323 4.48047 28.5298 4.43262 28.4614 4.33691L28.3726 4.39844C28.4159 4.45996 28.4375 4.51693 28.4375 4.56934C28.4375 4.62174 28.4295 4.67757 28.4136 4.73682V4.74023C28.3931 4.81771 28.3828 4.87695 28.3828 4.91797C28.3828 4.95898 28.4056 5.01253 28.4512 5.07861L28.3623 5.14355C28.2939 5.04785 28.1914 5 28.0547 5H26.8174C26.8105 5.04329 26.8071 5.11621 26.8071 5.21875ZM29.1211 3.53369H29.7739C29.9106 3.53369 30.0337 3.57015 30.1431 3.64307L30.1875 3.57812C30.0804 3.50521 30.0029 3.40381 29.9551 3.27393L29.521 2.16309C29.4709 2.0332 29.4447 1.90104 29.4424 1.7666H29.3979C29.3934 1.91699 29.3706 2.04915 29.3296 2.16309L28.9365 3.27051C28.8887 3.40267 28.8123 3.50521 28.7075 3.57812L28.752 3.64648C28.859 3.57129 28.9821 3.53369 29.1211 3.53369ZM31.3394 6.13135C31.3394 5.97412 31.369 5.77702 31.4282 5.54004C31.4943 5.81348 31.5273 5.99121 31.5273 6.07324C31.5273 6.19401 31.4954 6.25439 31.4316 6.25439C31.3701 6.25439 31.3394 6.21338 31.3394 6.13135Z" fill="white"/>
</svg>
