<svg width="17" height="17" viewBox="0 0 17 17" fill="none" xmlns="http://www.w3.org/2000/svg">
<circle cx="8.5" cy="8.5" r="8.5" fill="black"/>
<path d="M7.69531 13.3267L7.80811 12.564C7.80811 12.0376 7.24593 11.7744 6.12158 11.7744C5.92822 11.7744 5.79395 11.8192 5.71875 11.9087C5.64355 11.9982 5.60596 12.1504 5.60596 12.3652C5.60596 12.5801 5.63818 12.8773 5.70264 13.2568C5.76709 13.64 5.79932 13.9318 5.79932 14.1323C5.79932 14.3364 5.71875 14.4385 5.55762 14.4385C5.39648 14.4385 5.31592 14.3311 5.31592 14.1162C5.31592 13.9049 5.34098 13.5845 5.39111 13.1548C5.44124 12.7251 5.46631 12.4333 5.46631 12.2793C5.46631 11.9141 5.40007 11.7314 5.26758 11.7314C5.18164 11.7314 5.13867 11.8335 5.13867 12.0376L5.26758 12.9292C5.26758 13.1405 5.19059 13.2461 5.03662 13.2461C4.88623 13.2461 4.81104 13.1387 4.81104 12.9238L4.93457 11.9355L4.9292 11.0439V5.28076C4.9292 5.05876 4.85938 4.87972 4.71973 4.74365L4.82715 4.63086C4.97396 4.77409 5.15299 4.8457 5.36426 4.8457H9.80078C11.9421 4.8457 13.2705 5.54215 13.7861 6.93506C13.9294 7.32894 14.001 7.74967 14.001 8.19727C14.001 8.64128 13.9723 9.02441 13.915 9.34668C13.8613 9.66536 13.7915 9.94645 13.7056 10.1899C13.6196 10.4299 13.4979 10.6429 13.3403 10.8291C13.1864 11.0153 13.0306 11.1729 12.873 11.3018C12.7191 11.4271 12.5221 11.5345 12.2822 11.624C12.0423 11.7135 11.8203 11.7834 11.6162 11.8335C11.4121 11.88 11.1561 11.9159 10.8481 11.9409C10.3647 11.9803 9.7972 12 9.14551 12H8.3667C8.06592 12 7.91553 12.2148 7.91553 12.6445L8.00146 13.332C8.00146 13.4681 7.95492 13.5361 7.86182 13.5361C7.75081 13.5361 7.69531 13.4663 7.69531 13.3267ZM10.7729 9.63135C10.884 9.48812 10.9699 9.30371 11.0308 9.07812C11.0916 8.84896 11.1221 8.57503 11.1221 8.25635C11.1221 7.93408 11.0684 7.66553 10.9609 7.45068C10.8535 7.23584 10.7103 7.07829 10.5312 6.97803C10.3522 6.87777 10.1535 6.80436 9.93506 6.75781C9.71663 6.70768 9.48747 6.68083 9.24756 6.67725C9.00765 6.67008 8.78385 6.66471 8.57617 6.66113C8.06771 6.65397 7.74186 6.57878 7.59863 6.43555L7.49121 6.54297C7.62728 6.67546 7.69531 6.85449 7.69531 7.08008V8.31543C7.69531 9.139 7.69889 9.75488 7.70605 10.1631H8.92529C9.5376 10.1631 9.97087 10.1094 10.2251 10.002C10.4829 9.89453 10.6655 9.771 10.7729 9.63135ZM8.03906 15.228C8.03906 15.3927 7.97819 15.4751 7.85645 15.4751C7.73828 15.4751 7.6792 15.4071 7.6792 15.271C7.6792 15.1385 7.68636 15.0221 7.70068 14.9219C7.71859 14.8216 7.74723 14.6927 7.78662 14.5352C7.82601 14.3812 7.84928 14.2845 7.85645 14.2451C7.86719 14.2917 7.88688 14.3687 7.91553 14.4761C7.94417 14.5871 7.96566 14.673 7.97998 14.7339C8.01937 14.9022 8.03906 15.0669 8.03906 15.228Z" fill="white"/>
</svg>
